<?xml version="1.0" standalone="no"?>
<!DOCTYPE svg PUBLIC "-//W3C//DTD SVG 20010904//EN" "http://www.w3.org/TR/2001/REC-SVG-20010904/DTD/svg10.dtd">
<!-- Created using Krita: https://krita.org -->
<svg xmlns="http://www.w3.org/2000/svg" 
    xmlns:xlink="http://www.w3.org/1999/xlink"
    xmlns:krita="http://krita.org/namespaces/svg/krita"
    xmlns:sodipodi="http://sodipodi.sourceforge.net/DTD/sodipodi-0.dtd"
    width="240pt"
    height="240pt"
    viewBox="0 0 240 240">
<defs/>
<path id="shape0" fill="#a290f6" fill-rule="evenodd" stroke="#a290f6" stroke-width="0.24" stroke-linecap="square" stroke-linejoin="bevel" d="M105.6 0L0 48L0 192L105.6 240L134.4 240L240 192L240 48L134.4 0Z" sodipodi:nodetypes="ccccccccc"/><path id="shape1" transform="translate(9.6, 9.6)" fill="#000000" fill-rule="evenodd" stroke="#000000" stroke-width="0.24" stroke-linecap="square" stroke-linejoin="bevel" d="M124.8 0L220.8 43.2L220.8 177.6L124.8 220.8L96 220.8L0 177.6L0 43.2L96 0Z" sodipodi:nodetypes="ccccccccc"/><rect id="shape2" transform="translate(72, 48)" fill="#000000" fill-rule="evenodd" stroke="#000000" stroke-width="0.24" stroke-linecap="square" stroke-linejoin="bevel" width="28.8" height="96"/><rect id="shape3" transform="translate(72, 48)" fill="#ffffff" fill-rule="evenodd" stroke="#ffffff" stroke-width="0.24" stroke-linecap="square" stroke-linejoin="bevel" width="28.8" height="105.6"/><circle id="shape4" transform="translate(43.2, 124.8)" r="28.8" cx="28.8" cy="28.8" fill="#ffffff" fill-rule="evenodd" stroke="#ffffff" stroke-width="0.24" stroke-linecap="square" stroke-linejoin="bevel"/><path id="shape5" transform="translate(38.4, 120)" fill="#000000" fill-rule="evenodd" stroke="#000000" stroke-width="0.24" stroke-linecap="square" stroke-linejoin="bevel" d="M33.6 0L33.6 24L19.2 9.6L0 33.6L0 0Z" sodipodi:nodetypes="cccccc"/><path id="shape6" transform="translate(67.2, 43.2)" fill="#000000" fill-rule="evenodd" stroke="#000000" stroke-width="0.24" stroke-linecap="square" stroke-linejoin="bevel" d="M38.4 0L0 28.8L0 0Z" sodipodi:nodetypes="cccc"/><path id="shape7" transform="matrix(1.11739275024942 0 0 1.05571847507331 116.83724637467 87.3571847507332)" fill="none" stroke="#5a379f" stroke-width="20" stroke-linecap="butt" stroke-linejoin="miter" stroke-miterlimit="2" d="M40 20C40 14.6977 37.8914 9.60715 34.1421 5.85786C30.3928 2.10858 25.3023 0 20 0C14.6977 0 9.60715 2.10858 5.85786 5.85786C2.10858 9.60715 0 14.6977 0 20C0 25.3023 2.10858 30.3928 5.85786 34.1421C9.60715 37.8914 14.6977 40 20 40C25.3023 40 30.3928 42.1086 34.1421 45.8579C37.8914 49.6072 40 54.6977 40 60C40 65.3023 37.8914 70.3928 34.1421 74.1421C30.3928 77.8914 25.3023 80 20 80C14.6977 80 9.60715 77.8914 5.85786 74.1421C2.10858 70.3928 0 65.3023 0 60" sodipodi:nodetypes="ccccccccccccc"/><rect id="shape8" transform="translate(177.6, 134.4)" fill="#686868" fill-rule="evenodd" stroke="#686868" stroke-width="0.24" stroke-linecap="square" stroke-linejoin="bevel" width="14.4" height="48"/><circle id="shape9" transform="translate(177.6, 110.4)" r="7.2" cx="7.2" cy="7.2" fill="#686868" fill-rule="evenodd" stroke="#686868" stroke-width="0.24" stroke-linecap="square" stroke-linejoin="bevel"/><rect id="shape10" transform="translate(177.6, 117.36)" fill="#686868" fill-rule="evenodd" stroke="#686868" stroke-width="0.24" stroke-linecap="square" stroke-linejoin="bevel" width="14.4" height="7.44"/>
</svg>
